<mxfile host="app.diagrams.net" modified="2021-11-17T07:56:29.473Z" agent="5.0 (Windows NT 10.0; Win64; x64) AppleWebKit/537.36 (KHTML, like Gecko) Chrome/95.0.4638.69 Safari/537.36" etag="V2L92_EPIcNvoiNE1SFk" version="15.7.4" type="github">
  <diagram id="6IK1Bddi_FLpw86vCZfW" name="Page-1">
    <mxGraphModel dx="1038" dy="579" grid="1" gridSize="10" guides="1" tooltips="1" connect="1" arrows="1" fold="1" page="1" pageScale="1" pageWidth="827" pageHeight="1169" math="0" shadow="0">
      <root>
        <mxCell id="0" />
        <mxCell id="1" parent="0" />
        <mxCell id="dRNRdsOuCcTUxrF4bdvi-7" style="edgeStyle=orthogonalEdgeStyle;rounded=0;orthogonalLoop=1;jettySize=auto;html=1;entryX=0;entryY=0.5;entryDx=0;entryDy=0;" parent="1" source="dRNRdsOuCcTUxrF4bdvi-2" target="dRNRdsOuCcTUxrF4bdvi-5" edge="1">
          <mxGeometry relative="1" as="geometry" />
        </mxCell>
        <mxCell id="dRNRdsOuCcTUxrF4bdvi-8" style="edgeStyle=orthogonalEdgeStyle;rounded=0;orthogonalLoop=1;jettySize=auto;html=1;exitX=0.5;exitY=1;exitDx=0;exitDy=0;entryX=0;entryY=0.5;entryDx=0;entryDy=0;entryPerimeter=0;" parent="1" source="dRNRdsOuCcTUxrF4bdvi-2" target="dRNRdsOuCcTUxrF4bdvi-3" edge="1">
          <mxGeometry relative="1" as="geometry" />
        </mxCell>
        <mxCell id="dRNRdsOuCcTUxrF4bdvi-9" style="edgeStyle=orthogonalEdgeStyle;rounded=0;orthogonalLoop=1;jettySize=auto;html=1;exitX=0.5;exitY=1;exitDx=0;exitDy=0;" parent="1" source="dRNRdsOuCcTUxrF4bdvi-2" target="dRNRdsOuCcTUxrF4bdvi-6" edge="1">
          <mxGeometry relative="1" as="geometry">
            <mxPoint x="140" y="490" as="targetPoint" />
            <Array as="points">
              <mxPoint x="140" y="420" />
              <mxPoint x="228" y="420" />
            </Array>
          </mxGeometry>
        </mxCell>
        <mxCell id="dRNRdsOuCcTUxrF4bdvi-15" style="edgeStyle=orthogonalEdgeStyle;rounded=0;orthogonalLoop=1;jettySize=auto;html=1;exitX=1;exitY=0.5;exitDx=0;exitDy=0;entryX=0;entryY=0.5;entryDx=0;entryDy=0;startArrow=classic;startFill=1;" parent="1" source="dRNRdsOuCcTUxrF4bdvi-2" target="dRNRdsOuCcTUxrF4bdvi-14" edge="1">
          <mxGeometry relative="1" as="geometry" />
        </mxCell>
        <mxCell id="dRNRdsOuCcTUxrF4bdvi-2" value="Repositorio" style="rounded=0;whiteSpace=wrap;html=1;" parent="1" vertex="1">
          <mxGeometry x="80" y="80" width="120" height="60" as="geometry" />
        </mxCell>
        <mxCell id="dRNRdsOuCcTUxrF4bdvi-3" value="" style="shape=cylinder3;whiteSpace=wrap;html=1;boundedLbl=1;backgroundOutline=1;size=15;" parent="1" vertex="1">
          <mxGeometry x="190" y="300" width="60" height="80" as="geometry" />
        </mxCell>
        <mxCell id="dRNRdsOuCcTUxrF4bdvi-5" value="" style="shape=image;html=1;verticalAlign=top;verticalLabelPosition=bottom;labelBackgroundColor=#ffffff;imageAspect=0;aspect=fixed;image=https://cdn4.iconfinder.com/data/icons/logos-brands-5/24/firebase-128.png" parent="1" vertex="1">
          <mxGeometry x="180" y="190" width="80" height="80" as="geometry" />
        </mxCell>
        <mxCell id="dRNRdsOuCcTUxrF4bdvi-6" value="" style="sketch=0;pointerEvents=1;shadow=0;dashed=0;html=1;strokeColor=none;fillColor=#434445;aspect=fixed;labelPosition=center;verticalLabelPosition=bottom;verticalAlign=top;align=center;outlineConnect=0;shape=mxgraph.vvd.array_manager;" parent="1" vertex="1">
          <mxGeometry x="180" y="440" width="95.89" height="70" as="geometry" />
        </mxCell>
        <mxCell id="dRNRdsOuCcTUxrF4bdvi-10" value="Clase encargada de la comunicaciÃ³n con los almacenamiento de datos" style="text;html=1;strokeColor=#d79b00;fillColor=#ffe6cc;align=center;verticalAlign=middle;whiteSpace=wrap;rounded=0;" parent="1" vertex="1">
          <mxGeometry x="50" y="30" width="180" height="40" as="geometry" />
        </mxCell>
        <mxCell id="dRNRdsOuCcTUxrF4bdvi-11" value="FireBase" style="text;html=1;strokeColor=none;fillColor=none;align=center;verticalAlign=middle;whiteSpace=wrap;rounded=0;" parent="1" vertex="1">
          <mxGeometry x="260" y="215" width="60" height="30" as="geometry" />
        </mxCell>
        <mxCell id="dRNRdsOuCcTUxrF4bdvi-12" value="Other db" style="text;html=1;strokeColor=none;fillColor=none;align=center;verticalAlign=middle;whiteSpace=wrap;rounded=0;" parent="1" vertex="1">
          <mxGeometry x="260" y="325" width="60" height="30" as="geometry" />
        </mxCell>
        <mxCell id="dRNRdsOuCcTUxrF4bdvi-13" value="Array" style="text;html=1;strokeColor=none;fillColor=none;align=center;verticalAlign=middle;whiteSpace=wrap;rounded=0;" parent="1" vertex="1">
          <mxGeometry x="290" y="460" width="60" height="30" as="geometry" />
        </mxCell>
        <mxCell id="Sz5xXB3OdpEm1Yu7rBPH-2" style="edgeStyle=orthogonalEdgeStyle;rounded=0;orthogonalLoop=1;jettySize=auto;html=1;entryX=0.5;entryY=0;entryDx=0;entryDy=0;startArrow=classic;startFill=1;" edge="1" parent="1" source="dRNRdsOuCcTUxrF4bdvi-14" target="Sz5xXB3OdpEm1Yu7rBPH-1">
          <mxGeometry relative="1" as="geometry" />
        </mxCell>
        <mxCell id="dRNRdsOuCcTUxrF4bdvi-14" value="Interator" style="rounded=0;whiteSpace=wrap;html=1;" parent="1" vertex="1">
          <mxGeometry x="530" y="80" width="120" height="60" as="geometry" />
        </mxCell>
        <mxCell id="Sz5xXB3OdpEm1Yu7rBPH-4" style="edgeStyle=orthogonalEdgeStyle;rounded=0;orthogonalLoop=1;jettySize=auto;html=1;startArrow=classic;startFill=1;" edge="1" parent="1" source="Sz5xXB3OdpEm1Yu7rBPH-1" target="Sz5xXB3OdpEm1Yu7rBPH-3">
          <mxGeometry relative="1" as="geometry" />
        </mxCell>
        <mxCell id="Sz5xXB3OdpEm1Yu7rBPH-1" value="Presentador" style="rounded=0;whiteSpace=wrap;html=1;" vertex="1" parent="1">
          <mxGeometry x="530" y="215" width="120" height="60" as="geometry" />
        </mxCell>
        <mxCell id="Sz5xXB3OdpEm1Yu7rBPH-3" value="Vista" style="rounded=0;whiteSpace=wrap;html=1;" vertex="1" parent="1">
          <mxGeometry x="530" y="365" width="120" height="60" as="geometry" />
        </mxCell>
        <mxCell id="Sz5xXB3OdpEm1Yu7rBPH-6" value="&lt;h2 style=&quot;text-align: justify&quot;&gt;&lt;font face=&quot;Comic Sans MS&quot; style=&quot;line-height: 0.9&quot;&gt;&amp;nbsp;Posemos un textInputLaout&amp;nbsp; &amp;nbsp;que aplica las regla Rn-1 ,&amp;nbsp; &amp;nbsp;Rn-2&lt;/font&gt;&lt;/h2&gt;" style="text;html=1;strokeColor=#000000;fillColor=#fff2cc;align=center;verticalAlign=middle;whiteSpace=wrap;rounded=0;strokeWidth=5;perimeterSpacing=0;glass=0;sketch=0;shadow=1;" vertex="1" parent="1">
          <mxGeometry x="480" y="440" width="260" height="110" as="geometry" />
        </mxCell>
        <mxCell id="Sz5xXB3OdpEm1Yu7rBPH-7" value="&lt;h2 style=&quot;text-align: justify; font-size: 12px;&quot;&gt;&lt;font face=&quot;Comic Sans MS&quot; style=&quot;line-height: 0.9; font-size: 12px;&quot;&gt;1.3&lt;/font&gt;&lt;/h2&gt;" style="text;html=1;strokeColor=#b85450;fillColor=#f8cecc;align=center;verticalAlign=middle;whiteSpace=wrap;rounded=0;strokeWidth=5;perimeterSpacing=0;glass=0;sketch=0;shadow=1;fontSize=12;" vertex="1" parent="1">
          <mxGeometry x="610" y="30" width="110" height="40" as="geometry" />
        </mxCell>
      </root>
    </mxGraphModel>
  </diagram>
</mxfile>
